<?xml version="1.0" encoding="UTF-8"?>
<!DOCTYPE svg PUBLIC "-//W3C//DTD SVG 1.1//EN" "http://www.w3.org/Graphics/SVG/1.1/DTD/svg11.dtd">
<!-- Creator: CorelDRAW X6 -->
<svg xmlns="http://www.w3.org/2000/svg" xml:space="preserve" width="297mm" height="210mm" version="1.1" style="shape-rendering:geometricPrecision; text-rendering:geometricPrecision; image-rendering:optimizeQuality; fill-rule:evenodd; clip-rule:evenodd"
viewBox="0 0 29700 21000"
 xmlns:xlink="http://www.w3.org/1999/xlink">
 <defs>
  <style type="text/css">
   <![CDATA[
    .fil1 {fill:#373435}
    .fil0 {fill:white}
   ]]>
  </style>
 </defs>
 <g id="Camada_x0020_1">
  <metadata id="CorelCorpID_0Corel-Layer"/>
  <g id="_206513688">
   <rect class="fil0" x="-1676" y="1802" width="32676" height="17198"/>
   <g>
    <rect class="fil1" x="-1676" y="1802" width="32676" height="1323"/>
   </g>
   <g>
    <rect class="fil1" x="-1676" y="4448" width="32676" height="1323"/>
   </g>
   <g>
    <rect class="fil1" x="-1676" y="7094" width="32676" height="1323"/>
   </g>
   <g>
    <rect class="fil1" x="-1676" y="9740" width="32676" height="1323"/>
   </g>
   <g>
    <rect class="fil1" x="-1676" y="12385" width="32676" height="1323"/>
   </g>
   <g>
    <rect class="fil1" x="-1676" y="15031" width="32676" height="1323"/>
   </g>
   <g>
    <rect class="fil1" x="-1676" y="17677" width="32676" height="1323"/>
   </g>
   <rect class="fil1" x="-1676" y="1802" width="13070" height="9260"/>
   <g>
    <g>
     <g>
      <g>
       <g>
        <g>
         <g>
          <g>
           <g>
            <g>
             <g>
              <polygon class="fil0" points="-419,2819 -870,3146 -697,2616 "/>
             </g>
             <g>
              <polygon class="fil0" points="-611,2881 -1062,2554 -505,2554 "/>
             </g>
             <g>
              <polygon class="fil0" points="-730,2718 -558,2188 -386,2718 "/>
             </g>
             <g>
              <polygon class="fil0" points="-611,2554 -54,2554 -505,2881 "/>
             </g>
             <g>
              <polygon class="fil0" points="-419,2616 -247,3146 -697,2819 "/>
             </g>
            </g>
           </g>
           <g>
            <g>
             <g>
              <polygon class="fil0" points="1748,2819 1297,3146 1470,2616 "/>
             </g>
             <g>
              <polygon class="fil0" points="1556,2881 1105,2554 1662,2554 "/>
             </g>
             <g>
              <polygon class="fil0" points="1437,2718 1609,2188 1781,2718 "/>
             </g>
             <g>
              <polygon class="fil0" points="1556,2554 2113,2554 1662,2881 "/>
             </g>
             <g>
              <polygon class="fil0" points="1748,2616 1920,3146 1470,2819 "/>
             </g>
            </g>
           </g>
           <g>
            <g>
             <g>
              <polygon class="fil0" points="3915,2819 3464,3146 3636,2616 "/>
             </g>
             <g>
              <polygon class="fil0" points="3723,2881 3272,2554 3829,2554 "/>
             </g>
             <g>
              <polygon class="fil0" points="3604,2718 3776,2188 3948,2718 "/>
             </g>
             <g>
              <polygon class="fil0" points="3723,2554 4279,2554 3829,2881 "/>
             </g>
             <g>
              <polygon class="fil0" points="3915,2616 4087,3146 3636,2819 "/>
             </g>
            </g>
           </g>
           <g>
            <g>
             <g>
              <polygon class="fil0" points="6082,2819 5631,3146 5803,2616 "/>
             </g>
             <g>
              <polygon class="fil0" points="5889,2881 5439,2554 5996,2554 "/>
             </g>
             <g>
              <polygon class="fil0" points="5771,2718 5943,2188 6115,2718 "/>
             </g>
             <g>
              <polygon class="fil0" points="5889,2554 6446,2554 5996,2881 "/>
             </g>
             <g>
              <polygon class="fil0" points="6082,2616 6254,3146 5803,2819 "/>
             </g>
            </g>
           </g>
           <g>
            <g>
             <g>
              <polygon class="fil0" points="8249,2819 7798,3146 7970,2616 "/>
             </g>
             <g>
              <polygon class="fil0" points="8056,2881 7606,2554 8163,2554 "/>
             </g>
             <g>
              <polygon class="fil0" points="7937,2718 8110,2188 8282,2718 "/>
             </g>
             <g>
              <polygon class="fil0" points="8056,2554 8613,2554 8163,2881 "/>
             </g>
             <g>
              <polygon class="fil0" points="8249,2616 8421,3146 7970,2819 "/>
             </g>
            </g>
           </g>
          </g>
         </g>
         <g>
          <g>
           <g>
            <polygon class="fil0" points="10416,2819 9965,3146 10137,2616 "/>
           </g>
           <g>
            <polygon class="fil0" points="10223,2881 9773,2554 10330,2554 "/>
           </g>
           <g>
            <polygon class="fil0" points="10104,2718 10277,2188 10449,2718 "/>
           </g>
           <g>
            <polygon class="fil0" points="10223,2554 10780,2554 10330,2881 "/>
           </g>
           <g>
            <polygon class="fil0" points="10416,2616 10588,3146 10137,2819 "/>
           </g>
          </g>
         </g>
        </g>
       </g>
       <g>
        <g>
         <g>
          <g>
           <g>
            <polygon class="fil0" points="665,3747 214,4075 386,3545 "/>
           </g>
           <g>
            <polygon class="fil0" points="472,3810 22,3483 578,3483 "/>
           </g>
           <g>
            <polygon class="fil0" points="353,3646 525,3117 697,3646 "/>
           </g>
           <g>
            <polygon class="fil0" points="472,3483 1029,3483 578,3810 "/>
           </g>
           <g>
            <polygon class="fil0" points="665,3545 837,4075 386,3747 "/>
           </g>
          </g>
         </g>
         <g>
          <g>
           <g>
            <polygon class="fil0" points="2831,3747 2381,4075 2553,3545 "/>
           </g>
           <g>
            <polygon class="fil0" points="2639,3810 2188,3483 2745,3483 "/>
           </g>
           <g>
            <polygon class="fil0" points="2520,3646 2692,3117 2864,3646 "/>
           </g>
           <g>
            <polygon class="fil0" points="2639,3483 3196,3483 2745,3810 "/>
           </g>
           <g>
            <polygon class="fil0" points="2831,3545 3004,4075 2553,3747 "/>
           </g>
          </g>
         </g>
         <g>
          <g>
           <g>
            <polygon class="fil0" points="4998,3747 4548,4075 4720,3545 "/>
           </g>
           <g>
            <polygon class="fil0" points="4806,3810 4355,3483 4912,3483 "/>
           </g>
           <g>
            <polygon class="fil0" points="4687,3646 4859,3117 5031,3646 "/>
           </g>
           <g>
            <polygon class="fil0" points="4806,3483 5363,3483 4912,3810 "/>
           </g>
           <g>
            <polygon class="fil0" points="4998,3545 5171,4075 4720,3747 "/>
           </g>
          </g>
         </g>
         <g>
          <g>
           <g>
            <polygon class="fil0" points="7165,3747 6715,4075 6887,3545 "/>
           </g>
           <g>
            <polygon class="fil0" points="6973,3810 6522,3483 7079,3483 "/>
           </g>
           <g>
            <polygon class="fil0" points="6854,3646 7026,3117 7198,3646 "/>
           </g>
           <g>
            <polygon class="fil0" points="6973,3483 7530,3483 7079,3810 "/>
           </g>
           <g>
            <polygon class="fil0" points="7165,3545 7337,4075 6887,3747 "/>
           </g>
          </g>
         </g>
         <g>
          <g>
           <g>
            <polygon class="fil0" points="9332,3747 8882,4075 9054,3545 "/>
           </g>
           <g>
            <polygon class="fil0" points="9140,3810 8689,3483 9246,3483 "/>
           </g>
           <g>
            <polygon class="fil0" points="9021,3646 9193,3117 9365,3646 "/>
           </g>
           <g>
            <polygon class="fil0" points="9140,3483 9697,3483 9246,3810 "/>
           </g>
           <g>
            <polygon class="fil0" points="9332,3545 9504,4075 9054,3747 "/>
           </g>
          </g>
         </g>
        </g>
       </g>
       <g>
        <g>
         <g>
          <g>
           <g>
            <g>
             <g>
              <polygon class="fil0" points="-419,4676 -870,5003 -697,4474 "/>
             </g>
             <g>
              <polygon class="fil0" points="-611,4739 -1062,4411 -505,4411 "/>
             </g>
             <g>
              <polygon class="fil0" points="-730,4575 -558,4045 -386,4575 "/>
             </g>
             <g>
              <polygon class="fil0" points="-611,4411 -54,4411 -505,4739 "/>
             </g>
             <g>
              <polygon class="fil0" points="-419,4474 -247,5003 -697,4676 "/>
             </g>
            </g>
           </g>
           <g>
            <g>
             <g>
              <polygon class="fil0" points="1748,4676 1297,5003 1470,4474 "/>
             </g>
             <g>
              <polygon class="fil0" points="1556,4739 1105,4411 1662,4411 "/>
             </g>
             <g>
              <polygon class="fil0" points="1437,4575 1609,4045 1781,4575 "/>
             </g>
             <g>
              <polygon class="fil0" points="1556,4411 2113,4411 1662,4739 "/>
             </g>
             <g>
              <polygon class="fil0" points="1748,4474 1920,5003 1470,4676 "/>
             </g>
            </g>
           </g>
           <g>
            <g>
             <g>
              <polygon class="fil0" points="3915,4676 3464,5003 3636,4474 "/>
             </g>
             <g>
              <polygon class="fil0" points="3723,4739 3272,4411 3829,4411 "/>
             </g>
             <g>
              <polygon class="fil0" points="3604,4575 3776,4045 3948,4575 "/>
             </g>
             <g>
              <polygon class="fil0" points="3723,4411 4279,4411 3829,4739 "/>
             </g>
             <g>
              <polygon class="fil0" points="3915,4474 4087,5003 3636,4676 "/>
             </g>
            </g>
           </g>
           <g>
            <g>
             <g>
              <polygon class="fil0" points="6082,4676 5631,5003 5803,4474 "/>
             </g>
             <g>
              <polygon class="fil0" points="5889,4739 5439,4411 5996,4411 "/>
             </g>
             <g>
              <polygon class="fil0" points="5771,4575 5943,4045 6115,4575 "/>
             </g>
             <g>
              <polygon class="fil0" points="5889,4411 6446,4411 5996,4739 "/>
             </g>
             <g>
              <polygon class="fil0" points="6082,4474 6254,5003 5803,4676 "/>
             </g>
            </g>
           </g>
           <g>
            <g>
             <g>
              <polygon class="fil0" points="8249,4676 7798,5003 7970,4474 "/>
             </g>
             <g>
              <polygon class="fil0" points="8056,4739 7606,4411 8163,4411 "/>
             </g>
             <g>
              <polygon class="fil0" points="7937,4575 8110,4045 8282,4575 "/>
             </g>
             <g>
              <polygon class="fil0" points="8056,4411 8613,4411 8163,4739 "/>
             </g>
             <g>
              <polygon class="fil0" points="8249,4474 8421,5003 7970,4676 "/>
             </g>
            </g>
           </g>
          </g>
         </g>
         <g>
          <g>
           <g>
            <polygon class="fil0" points="10416,4676 9965,5003 10137,4474 "/>
           </g>
           <g>
            <polygon class="fil0" points="10223,4739 9773,4411 10330,4411 "/>
           </g>
           <g>
            <polygon class="fil0" points="10104,4575 10277,4045 10449,4575 "/>
           </g>
           <g>
            <polygon class="fil0" points="10223,4411 10780,4411 10330,4739 "/>
           </g>
           <g>
            <polygon class="fil0" points="10416,4474 10588,5003 10137,4676 "/>
           </g>
          </g>
         </g>
        </g>
       </g>
       <g>
        <g>
         <g>
          <g>
           <g>
            <polygon class="fil0" points="665,5605 214,5932 386,5402 "/>
           </g>
           <g>
            <polygon class="fil0" points="472,5667 22,5340 578,5340 "/>
           </g>
           <g>
            <polygon class="fil0" points="353,5504 525,4974 697,5504 "/>
           </g>
           <g>
            <polygon class="fil0" points="472,5340 1029,5340 578,5667 "/>
           </g>
           <g>
            <polygon class="fil0" points="665,5402 837,5932 386,5605 "/>
           </g>
          </g>
         </g>
         <g>
          <g>
           <g>
            <polygon class="fil0" points="2831,5605 2381,5932 2553,5402 "/>
           </g>
           <g>
            <polygon class="fil0" points="2639,5667 2188,5340 2745,5340 "/>
           </g>
           <g>
            <polygon class="fil0" points="2520,5504 2692,4974 2864,5504 "/>
           </g>
           <g>
            <polygon class="fil0" points="2639,5340 3196,5340 2745,5667 "/>
           </g>
           <g>
            <polygon class="fil0" points="2831,5402 3004,5932 2553,5605 "/>
           </g>
          </g>
         </g>
         <g>
          <g>
           <g>
            <polygon class="fil0" points="4998,5605 4548,5932 4720,5402 "/>
           </g>
           <g>
            <polygon class="fil0" points="4806,5667 4355,5340 4912,5340 "/>
           </g>
           <g>
            <polygon class="fil0" points="4687,5504 4859,4974 5031,5504 "/>
           </g>
           <g>
            <polygon class="fil0" points="4806,5340 5363,5340 4912,5667 "/>
           </g>
           <g>
            <polygon class="fil0" points="4998,5402 5171,5932 4720,5605 "/>
           </g>
          </g>
         </g>
         <g>
          <g>
           <g>
            <polygon class="fil0" points="7165,5605 6715,5932 6887,5402 "/>
           </g>
           <g>
            <polygon class="fil0" points="6973,5667 6522,5340 7079,5340 "/>
           </g>
           <g>
            <polygon class="fil0" points="6854,5504 7026,4974 7198,5504 "/>
           </g>
           <g>
            <polygon class="fil0" points="6973,5340 7530,5340 7079,5667 "/>
           </g>
           <g>
            <polygon class="fil0" points="7165,5402 7337,5932 6887,5605 "/>
           </g>
          </g>
         </g>
         <g>
          <g>
           <g>
            <polygon class="fil0" points="9332,5605 8882,5932 9054,5402 "/>
           </g>
           <g>
            <polygon class="fil0" points="9140,5667 8689,5340 9246,5340 "/>
           </g>
           <g>
            <polygon class="fil0" points="9021,5504 9193,4974 9365,5504 "/>
           </g>
           <g>
            <polygon class="fil0" points="9140,5340 9697,5340 9246,5667 "/>
           </g>
           <g>
            <polygon class="fil0" points="9332,5402 9504,5932 9054,5605 "/>
           </g>
          </g>
         </g>
        </g>
       </g>
      </g>
     </g>
     <g>
      <g>
       <g>
        <g>
         <g>
          <g>
           <g>
            <g>
             <g>
              <polygon class="fil0" points="-419,6533 -870,6861 -697,6331 "/>
             </g>
             <g>
              <polygon class="fil0" points="-611,6596 -1062,6269 -505,6269 "/>
             </g>
             <g>
              <polygon class="fil0" points="-730,6432 -558,5903 -386,6432 "/>
             </g>
             <g>
              <polygon class="fil0" points="-611,6269 -54,6269 -505,6596 "/>
             </g>
             <g>
              <polygon class="fil0" points="-419,6331 -247,6861 -697,6533 "/>
             </g>
            </g>
           </g>
           <g>
            <g>
             <g>
              <polygon class="fil0" points="1748,6533 1297,6861 1470,6331 "/>
             </g>
             <g>
              <polygon class="fil0" points="1556,6596 1105,6269 1662,6269 "/>
             </g>
             <g>
              <polygon class="fil0" points="1437,6432 1609,5903 1781,6432 "/>
             </g>
             <g>
              <polygon class="fil0" points="1556,6269 2113,6269 1662,6596 "/>
             </g>
             <g>
              <polygon class="fil0" points="1748,6331 1920,6861 1470,6533 "/>
             </g>
            </g>
           </g>
           <g>
            <g>
             <g>
              <polygon class="fil0" points="3915,6533 3464,6861 3636,6331 "/>
             </g>
             <g>
              <polygon class="fil0" points="3723,6596 3272,6269 3829,6269 "/>
             </g>
             <g>
              <polygon class="fil0" points="3604,6432 3776,5903 3948,6432 "/>
             </g>
             <g>
              <polygon class="fil0" points="3723,6269 4279,6269 3829,6596 "/>
             </g>
             <g>
              <polygon class="fil0" points="3915,6331 4087,6861 3636,6533 "/>
             </g>
            </g>
           </g>
           <g>
            <g>
             <g>
              <polygon class="fil0" points="6082,6533 5631,6861 5803,6331 "/>
             </g>
             <g>
              <polygon class="fil0" points="5889,6596 5439,6269 5996,6269 "/>
             </g>
             <g>
              <polygon class="fil0" points="5771,6432 5943,5903 6115,6432 "/>
             </g>
             <g>
              <polygon class="fil0" points="5889,6269 6446,6269 5996,6596 "/>
             </g>
             <g>
              <polygon class="fil0" points="6082,6331 6254,6861 5803,6533 "/>
             </g>
            </g>
           </g>
           <g>
            <g>
             <g>
              <polygon class="fil0" points="8249,6533 7798,6861 7970,6331 "/>
             </g>
             <g>
              <polygon class="fil0" points="8056,6596 7606,6269 8163,6269 "/>
             </g>
             <g>
              <polygon class="fil0" points="7937,6432 8110,5903 8282,6432 "/>
             </g>
             <g>
              <polygon class="fil0" points="8056,6269 8613,6269 8163,6596 "/>
             </g>
             <g>
              <polygon class="fil0" points="8249,6331 8421,6861 7970,6533 "/>
             </g>
            </g>
           </g>
          </g>
         </g>
         <g>
          <g>
           <g>
            <polygon class="fil0" points="10416,6533 9965,6861 10137,6331 "/>
           </g>
           <g>
            <polygon class="fil0" points="10223,6596 9773,6269 10330,6269 "/>
           </g>
           <g>
            <polygon class="fil0" points="10104,6432 10277,5903 10449,6432 "/>
           </g>
           <g>
            <polygon class="fil0" points="10223,6269 10780,6269 10330,6596 "/>
           </g>
           <g>
            <polygon class="fil0" points="10416,6331 10588,6861 10137,6533 "/>
           </g>
          </g>
         </g>
        </g>
       </g>
       <g>
        <g>
         <g>
          <g>
           <g>
            <polygon class="fil0" points="665,7462 214,7790 386,7260 "/>
           </g>
           <g>
            <polygon class="fil0" points="472,7525 22,7197 578,7197 "/>
           </g>
           <g>
            <polygon class="fil0" points="353,7361 525,6831 697,7361 "/>
           </g>
           <g>
            <polygon class="fil0" points="472,7197 1029,7197 578,7525 "/>
           </g>
           <g>
            <polygon class="fil0" points="665,7260 837,7790 386,7462 "/>
           </g>
          </g>
         </g>
         <g>
          <g>
           <g>
            <polygon class="fil0" points="2831,7462 2381,7790 2553,7260 "/>
           </g>
           <g>
            <polygon class="fil0" points="2639,7525 2188,7197 2745,7197 "/>
           </g>
           <g>
            <polygon class="fil0" points="2520,7361 2692,6831 2864,7361 "/>
           </g>
           <g>
            <polygon class="fil0" points="2639,7197 3196,7197 2745,7525 "/>
           </g>
           <g>
            <polygon class="fil0" points="2831,7260 3004,7790 2553,7462 "/>
           </g>
          </g>
         </g>
         <g>
          <g>
           <g>
            <polygon class="fil0" points="4998,7462 4548,7790 4720,7260 "/>
           </g>
           <g>
            <polygon class="fil0" points="4806,7525 4355,7197 4912,7197 "/>
           </g>
           <g>
            <polygon class="fil0" points="4687,7361 4859,6831 5031,7361 "/>
           </g>
           <g>
            <polygon class="fil0" points="4806,7197 5363,7197 4912,7525 "/>
           </g>
           <g>
            <polygon class="fil0" points="4998,7260 5171,7790 4720,7462 "/>
           </g>
          </g>
         </g>
         <g>
          <g>
           <g>
            <polygon class="fil0" points="7165,7462 6715,7790 6887,7260 "/>
           </g>
           <g>
            <polygon class="fil0" points="6973,7525 6522,7197 7079,7197 "/>
           </g>
           <g>
            <polygon class="fil0" points="6854,7361 7026,6831 7198,7361 "/>
           </g>
           <g>
            <polygon class="fil0" points="6973,7197 7530,7197 7079,7525 "/>
           </g>
           <g>
            <polygon class="fil0" points="7165,7260 7337,7790 6887,7462 "/>
           </g>
          </g>
         </g>
         <g>
          <g>
           <g>
            <polygon class="fil0" points="9332,7462 8882,7790 9054,7260 "/>
           </g>
           <g>
            <polygon class="fil0" points="9140,7525 8689,7197 9246,7197 "/>
           </g>
           <g>
            <polygon class="fil0" points="9021,7361 9193,6831 9365,7361 "/>
           </g>
           <g>
            <polygon class="fil0" points="9140,7197 9697,7197 9246,7525 "/>
           </g>
           <g>
            <polygon class="fil0" points="9332,7260 9504,7790 9054,7462 "/>
           </g>
          </g>
         </g>
        </g>
       </g>
       <g>
        <g>
         <g>
          <g>
           <g>
            <g>
             <g>
              <polygon class="fil0" points="-419,8391 -870,8718 -697,8189 "/>
             </g>
             <g>
              <polygon class="fil0" points="-611,8453 -1062,8126 -505,8126 "/>
             </g>
             <g>
              <polygon class="fil0" points="-730,8290 -558,7760 -386,8290 "/>
             </g>
             <g>
              <polygon class="fil0" points="-611,8126 -54,8126 -505,8453 "/>
             </g>
             <g>
              <polygon class="fil0" points="-419,8189 -247,8718 -697,8391 "/>
             </g>
            </g>
           </g>
           <g>
            <g>
             <g>
              <polygon class="fil0" points="1748,8391 1297,8718 1470,8189 "/>
             </g>
             <g>
              <polygon class="fil0" points="1556,8453 1105,8126 1662,8126 "/>
             </g>
             <g>
              <polygon class="fil0" points="1437,8290 1609,7760 1781,8290 "/>
             </g>
             <g>
              <polygon class="fil0" points="1556,8126 2113,8126 1662,8453 "/>
             </g>
             <g>
              <polygon class="fil0" points="1748,8189 1920,8718 1470,8391 "/>
             </g>
            </g>
           </g>
           <g>
            <g>
             <g>
              <polygon class="fil0" points="3915,8391 3464,8718 3636,8189 "/>
             </g>
             <g>
              <polygon class="fil0" points="3723,8453 3272,8126 3829,8126 "/>
             </g>
             <g>
              <polygon class="fil0" points="3604,8290 3776,7760 3948,8290 "/>
             </g>
             <g>
              <polygon class="fil0" points="3723,8126 4279,8126 3829,8453 "/>
             </g>
             <g>
              <polygon class="fil0" points="3915,8189 4087,8718 3636,8391 "/>
             </g>
            </g>
           </g>
           <g>
            <g>
             <g>
              <polygon class="fil0" points="6082,8391 5631,8718 5803,8189 "/>
             </g>
             <g>
              <polygon class="fil0" points="5889,8453 5439,8126 5996,8126 "/>
             </g>
             <g>
              <polygon class="fil0" points="5771,8290 5943,7760 6115,8290 "/>
             </g>
             <g>
              <polygon class="fil0" points="5889,8126 6446,8126 5996,8453 "/>
             </g>
             <g>
              <polygon class="fil0" points="6082,8189 6254,8718 5803,8391 "/>
             </g>
            </g>
           </g>
           <g>
            <g>
             <g>
              <polygon class="fil0" points="8249,8391 7798,8718 7970,8189 "/>
             </g>
             <g>
              <polygon class="fil0" points="8056,8453 7606,8126 8163,8126 "/>
             </g>
             <g>
              <polygon class="fil0" points="7937,8290 8110,7760 8282,8290 "/>
             </g>
             <g>
              <polygon class="fil0" points="8056,8126 8613,8126 8163,8453 "/>
             </g>
             <g>
              <polygon class="fil0" points="8249,8189 8421,8718 7970,8391 "/>
             </g>
            </g>
           </g>
          </g>
         </g>
         <g>
          <g>
           <g>
            <polygon class="fil0" points="10416,8391 9965,8718 10137,8189 "/>
           </g>
           <g>
            <polygon class="fil0" points="10223,8453 9773,8126 10330,8126 "/>
           </g>
           <g>
            <polygon class="fil0" points="10104,8290 10277,7760 10449,8290 "/>
           </g>
           <g>
            <polygon class="fil0" points="10223,8126 10780,8126 10330,8453 "/>
           </g>
           <g>
            <polygon class="fil0" points="10416,8189 10588,8718 10137,8391 "/>
           </g>
          </g>
         </g>
        </g>
       </g>
       <g>
        <g>
         <g>
          <g>
           <g>
            <polygon class="fil0" points="665,9320 214,9647 386,9117 "/>
           </g>
           <g>
            <polygon class="fil0" points="472,9382 22,9055 578,9055 "/>
           </g>
           <g>
            <polygon class="fil0" points="353,9218 525,8689 697,9218 "/>
           </g>
           <g>
            <polygon class="fil0" points="472,9055 1029,9055 578,9382 "/>
           </g>
           <g>
            <polygon class="fil0" points="665,9117 837,9647 386,9320 "/>
           </g>
          </g>
         </g>
         <g>
          <g>
           <g>
            <polygon class="fil0" points="2831,9320 2381,9647 2553,9117 "/>
           </g>
           <g>
            <polygon class="fil0" points="2639,9382 2188,9055 2745,9055 "/>
           </g>
           <g>
            <polygon class="fil0" points="2520,9218 2692,8689 2864,9218 "/>
           </g>
           <g>
            <polygon class="fil0" points="2639,9055 3196,9055 2745,9382 "/>
           </g>
           <g>
            <polygon class="fil0" points="2831,9117 3004,9647 2553,9320 "/>
           </g>
          </g>
         </g>
         <g>
          <g>
           <g>
            <polygon class="fil0" points="4998,9320 4548,9647 4720,9117 "/>
           </g>
           <g>
            <polygon class="fil0" points="4806,9382 4355,9055 4912,9055 "/>
           </g>
           <g>
            <polygon class="fil0" points="4687,9218 4859,8689 5031,9218 "/>
           </g>
           <g>
            <polygon class="fil0" points="4806,9055 5363,9055 4912,9382 "/>
           </g>
           <g>
            <polygon class="fil0" points="4998,9117 5171,9647 4720,9320 "/>
           </g>
          </g>
         </g>
         <g>
          <g>
           <g>
            <polygon class="fil0" points="7165,9320 6715,9647 6887,9117 "/>
           </g>
           <g>
            <polygon class="fil0" points="6973,9382 6522,9055 7079,9055 "/>
           </g>
           <g>
            <polygon class="fil0" points="6854,9218 7026,8689 7198,9218 "/>
           </g>
           <g>
            <polygon class="fil0" points="6973,9055 7530,9055 7079,9382 "/>
           </g>
           <g>
            <polygon class="fil0" points="7165,9117 7337,9647 6887,9320 "/>
           </g>
          </g>
         </g>
         <g>
          <g>
           <g>
            <polygon class="fil0" points="9332,9320 8882,9647 9054,9117 "/>
           </g>
           <g>
            <polygon class="fil0" points="9140,9382 8689,9055 9246,9055 "/>
           </g>
           <g>
            <polygon class="fil0" points="9021,9218 9193,8689 9365,9218 "/>
           </g>
           <g>
            <polygon class="fil0" points="9140,9055 9697,9055 9246,9382 "/>
           </g>
           <g>
            <polygon class="fil0" points="9332,9117 9504,9647 9054,9320 "/>
           </g>
          </g>
         </g>
        </g>
       </g>
      </g>
     </g>
     <g>
      <g>
       <g>
        <g>
         <g>
          <g>
           <g>
            <polygon class="fil0" points="-419,10248 -870,10576 -697,10046 "/>
           </g>
           <g>
            <polygon class="fil0" points="-611,10311 -1062,9983 -505,9983 "/>
           </g>
           <g>
            <polygon class="fil0" points="-730,10147 -558,9617 -386,10147 "/>
           </g>
           <g>
            <polygon class="fil0" points="-611,9983 -54,9983 -505,10311 "/>
           </g>
           <g>
            <polygon class="fil0" points="-419,10046 -247,10576 -697,10248 "/>
           </g>
          </g>
         </g>
         <g>
          <g>
           <g>
            <polygon class="fil0" points="1748,10248 1297,10576 1470,10046 "/>
           </g>
           <g>
            <polygon class="fil0" points="1556,10311 1105,9983 1662,9983 "/>
           </g>
           <g>
            <polygon class="fil0" points="1437,10147 1609,9617 1781,10147 "/>
           </g>
           <g>
            <polygon class="fil0" points="1556,9983 2113,9983 1662,10311 "/>
           </g>
           <g>
            <polygon class="fil0" points="1748,10046 1920,10576 1470,10248 "/>
           </g>
          </g>
         </g>
         <g>
          <g>
           <g>
            <polygon class="fil0" points="3915,10248 3464,10576 3636,10046 "/>
           </g>
           <g>
            <polygon class="fil0" points="3723,10311 3272,9983 3829,9983 "/>
           </g>
           <g>
            <polygon class="fil0" points="3604,10147 3776,9617 3948,10147 "/>
           </g>
           <g>
            <polygon class="fil0" points="3723,9983 4279,9983 3829,10311 "/>
           </g>
           <g>
            <polygon class="fil0" points="3915,10046 4087,10576 3636,10248 "/>
           </g>
          </g>
         </g>
         <g>
          <g>
           <g>
            <polygon class="fil0" points="6082,10248 5631,10576 5803,10046 "/>
           </g>
           <g>
            <polygon class="fil0" points="5889,10311 5439,9983 5996,9983 "/>
           </g>
           <g>
            <polygon class="fil0" points="5771,10147 5943,9617 6115,10147 "/>
           </g>
           <g>
            <polygon class="fil0" points="5889,9983 6446,9983 5996,10311 "/>
           </g>
           <g>
            <polygon class="fil0" points="6082,10046 6254,10576 5803,10248 "/>
           </g>
          </g>
         </g>
         <g>
          <g>
           <g>
            <polygon class="fil0" points="8249,10248 7798,10576 7970,10046 "/>
           </g>
           <g>
            <polygon class="fil0" points="8056,10311 7606,9983 8163,9983 "/>
           </g>
           <g>
            <polygon class="fil0" points="7937,10147 8110,9617 8282,10147 "/>
           </g>
           <g>
            <polygon class="fil0" points="8056,9983 8613,9983 8163,10311 "/>
           </g>
           <g>
            <polygon class="fil0" points="8249,10046 8421,10576 7970,10248 "/>
           </g>
          </g>
         </g>
        </g>
       </g>
       <g>
        <g>
         <g>
          <polygon class="fil0" points="10416,10248 9965,10576 10137,10046 "/>
         </g>
         <g>
          <polygon class="fil0" points="10223,10311 9773,9983 10330,9983 "/>
         </g>
         <g>
          <polygon class="fil0" points="10104,10147 10277,9617 10449,10147 "/>
         </g>
         <g>
          <polygon class="fil0" points="10223,9983 10780,9983 10330,10311 "/>
         </g>
         <g>
          <polygon class="fil0" points="10416,10046 10588,10576 10137,10248 "/>
         </g>
        </g>
       </g>
      </g>
     </g>
    </g>
   </g>
  </g>
 </g>
</svg>
